# xmcd CD database file
#
# Track frame offsets:
#	150
#	9544
#	20417
#	31500
#	42853
#	52952
#	61975
#	72940
#	83271
#	94282
#	104265
#	115767
#
# Disc length: 1689 seconds
#
# Revision: 0
# Processed by: cddbd v1.5.1PL2 Copyright (c) Steve Scherf et al.
# Submitted via: CDex 1.51
#
DISCID=8506970c
DTITLE=Martin Denny - Latin Village
DYEAR=1964
DGENRE=New Age
TTITLE0=Angelito
TTITLE1=On Green Dolphin Street
TTITLE2=Corcovado
TTITLE3=Without You
TTITLE4=Ho-ba-la-la
TTITLE5=Something Latin
TTITLE6=Manha de Carnaval
TTITLE7=Latin Village
TTITLE8=The Girl from Ipanema
TTITLE9=Malaguena
TTITLE10=Sugar Cane
TTITLE11=Flying Down to Rio
EXTD=YEAR: 1964
EXTT0=
EXTT1=
EXTT2=
EXTT3=
EXTT4=
EXTT5=
EXTT6=
EXTT7=
EXTT8=
EXTT9=
EXTT10=
EXTT11=
PLAYORDER=
